# xmcd
#
# Track frame offsets: 
#        150
#        20332
#        38672
#        57212
#        74858
#        93984
#        112654
#        130978
#        146322
#        162369
#
# Disc length: 2376 seconds
#
# Revision: 0
# Processed by: cddbd v1.5.2PL0 Copyright (c) Steve Scherf et al.
# Submitted via: ExactAudioCopy v0.95b4
#
DISCID=8109460a
DTITLE=張信哲 - 雪國八月
DYEAR=2007
DGENRE=Vocal
TTITLE0=寧靜雪
TTITLE1=算
TTITLE2=微風掠過
TTITLE3=轉機
TTITLE4=雨霖鈴
TTITLE5=不如歸去
TTITLE6=是我非我
TTITLE7=亂世佳人
TTITLE8=一個美麗的傳說
TTITLE9=清風世界
EXTD=
EXTT0=
EXTT1=
EXTT2=
EXTT3=
EXTT4=
EXTT5=
EXTT6=
EXTT7=
EXTT8=
EXTT9=
PLAYORDER=
